Patient4_TMGait_0pt5_02_right_11_GRF.mot
version=1
nRows=32
nColumns=19
inDegrees=no
endheader
time	F1x	F1y	F1z	M1x	M1y	M1z	F2x	F2y	F2z	M2x	M2y	M2z	EC1x	EC1y	EC1z	EC2x	EC2y	EC2z
14.41	0.11962	734.5463	47.6523	-270.7702	-40.2859	609.2951	11.222	-6.1838	7.3861	-3.5265	-5.5565	-10.2097	-0.0592	0.0182	-0.0073	-0.0462	0.0165	0.9585
14.4233	1.31	731.7767	48.0909	-270.4637	-39.3954	604.332	7.4045	-3.351	5.0083	-2.0795	-3.6934	-6.0504	-0.0592	0.0182	-0.0073	-0.0462	0.0165	0.9585
14.4366	2.7653	729.5766	48.157	-270.3735	-38.1102	599.2719	4.2083	-0.96461	2.9726	-0.84392	-2.1136	-2.5629	-0.0592	0.0182	-0.0073	-0.0462	0.0165	0.9585
14.4499	4.3516	728.5109	47.9341	-270.6537	-36.5893	594.7391	1.7962	0.85193	1.4089	0.10946	-0.90827	0.082534	-0.0592	0.0182	-0.0073	-0.0462	0.0165	0.9585
14.4631	5.9081	729.0027	47.5997	-271.4163	-35.0453	591.2553	0.13424	2.115	0.31331	0.78152	-0.064001	1.9156	-0.0592	0.0182	-0.0073	-0.0462	0.0165	0.9585
14.4764	7.3054	731.2973	47.3432	-272.7183	-33.671	589.1673	-0.88719	2.8951	-0.37463	1.2072	0.46781	3.0387	-0.0592	0.0182	-0.0073	-0.0462	0.0165	0.9585
14.4897	8.4592	735.4675	47.3532	-274.5649	-32.6375	588.6436	-1.4463	3.2863	-0.74731	1.4318	0.76484	3.6082	-0.0592	0.0182	-0.0073	-0.0462	0.0165	0.9585
14.503	9.3493	741.3972	47.745	-276.9059	-32.0315	589.6466	-1.6865	3.3404	-0.89103	1.4882	0.88844	3.7189	-0.0592	0.0182	-0.0073	-0.0462	0.0165	0.9585
14.5163	10.0127	748.7663	48.5855	-279.6268	-31.8795	591.9361	-1.7503	3.0972	-0.8819	1.401	0.90014	3.4738	-0.0592	0.0182	-0.0073	-0.0462	0.0165	0.9585
14.5296	10.5253	757.0349	49.8551	-282.5424	-32.1303	595.0634	-1.7312	2.5448	-0.77892	1.1768	0.84279	2.9025	-0.0592	0.0182	-0.0073	-0.0462	0.0165	0.9585
14.5429	10.9688	765.4647	51.4784	-285.4032	-32.6927	598.4118	-1.6817	1.6392	-0.6295	0.8076	0.74915	1.9864	-0.0592	0.0182	-0.0073	-0.0462	0.0165	0.9585
14.5561	11.4546	773.2024	53.3062	-287.9216	-33.4143	601.274	-1.6223	0.33793	-0.45836	0.28297	0.63134	0.70479	-0.0592	0.0182	-0.0073	-0.0462	0.0165	0.9585
14.5694	12.0816	779.3824	55.1797	-289.8043	-34.1461	602.948	-1.5155	-1.3979	-0.29252	-0.40492	0.49291	-0.98707	-0.0592	0.0182	-0.0073	-0.0462	0.0165	0.9585
14.5827	12.9432	783.2192	56.9525	-290.7839	-34.7534	602.8015	-1.3174	-3.5138	-0.14833	-1.234	0.32705	-3.0279	-0.0592	0.0182	-0.0073	-0.0462	0.0165	0.9585
14.596	14.116	784.1298	58.5403	-290.6596	-35.1554	600.3701	-0.92892	-5.8232	-0.04888	-2.1325	0.11943	-5.2386	-0.0592	0.0182	-0.0073	-0.0462	0.0165	0.9585
14.6093	15.6524	781.8576	59.9045	-289.3403	-35.309	595.4593	-0.24992	-7.9045	-0.0071713	-2.9428	-0.15446	-7.2095	-0.0592	0.0182	-0.0073	-0.0462	0.0165	0.9585
14.6226	17.6159	776.515	61.0554	-286.8656	-35.2038	588.1515	0.83738	-9.0361	-0.050117	-3.3936	-0.50435	-8.2565	-0.0592	0.0182	-0.0073	-0.0462	0.0165	0.9585
14.6359	20.038	768.5417	62.0134	-283.3957	-34.8407	578.7964	2.4383	-8.1226	-0.19875	-3.0697	-0.93573	-7.3497	-0.0592	0.0182	-0.0073	-0.0462	0.0165	0.9585
14.6491	22.9465	758.5469	62.8013	-279.1593	-34.2261	567.8709	4.585	-3.6461	-0.48718	-1.396	-1.413	-3.0467	-0.0592	0.0182	-0.0073	-0.0462	0.0165	0.9585
14.6624	26.3141	747.0898	63.4057	-274.368	-33.3553	555.8428	7.2178	6.2733	-0.93207	2.3428	-1.8764	6.4262	-0.0592	0.0182	-0.0073	-0.0462	0.0165	0.9585
14.6757	30.0535	734.4134	63.7635	-269.1198	-32.2107	542.972	10.0633	23.7255	-1.5453	8.9411	-2.194	23.047	-0.0592	0.0182	-0.0073	-0.0462	0.0165	0.9585
14.689	34.0045	720.2544	63.7488	-263.3318	-30.7574	529.1708	12.5787	50.6028	-2.3064	19.1248	-2.1699	48.5915	-0.0592	0.0182	-0.0073	-0.0462	0.0165	0.9585
14.7023	37.9086	703.7927	63.1838	-256.7207	-28.9641	513.9825	13.8175	87.9682	-3.1509	33.3081	-1.5123	84.0548	-0.0592	0.0182	-0.0073	-0.0462	0.0165	0.9585
14.7156	41.4475	683.7492	61.8549	-248.8434	-26.7977	496.6108	12.3765	135.0575	-3.9361	51.2189	0.14756	128.6854	-0.0592	0.0182	-0.0073	-0.0462	0.0165	0.9585
14.7289	44.2595	658.7537	59.5704	-239.229	-24.2538	476.1857	7.0778	188.6312	-4.5481	71.6288	3.1097	179.4395	-0.0592	0.0182	-0.0073	-0.0462	0.0165	0.9585
14.7421	46.0391	627.8802	56.2094	-227.5762	-21.3544	452.1106	-1.4104	243.2832	-5.2439	92.4429	7.3275	231.2185	-0.0592	0.0182	-0.0073	-0.0462	0.0165	0.9585
14.7554	46.6138	591.0853	51.8422	-213.9005	-18.2123	424.3379	-10.8009	293.113	-6.5211	111.3816	12.3637	278.263	-0.0592	0.0182	-0.0073	-0.0462	0.0165	0.9585
14.7687	45.9638	549.1878	46.7327	-198.5103	-15.0138	393.3768	-19.3844	335.1789	-8.5657	127.2883	17.7181	317.5979	-0.0592	0.0182	-0.0073	-0.0462	0.0165	0.9585
14.782	44.1873	503.3758	41.295	-181.8289	-12.0092	359.9689	-26.4044	370.1581	-11.2589	140.4138	22.974	349.7503	-0.0592	0.0182	-0.0073	-0.0462	0.0165	0.9585
14.7953	41.4231	454.7938	35.8975	-164.2472	-9.395	324.8545	-31.7999	400.625	-14.3173	151.7524	27.8347	377.1479	-0.0592	0.0182	-0.0073	-0.0462	0.0165	0.9585
14.8086	37.8303	404.4462	30.7696	-146.0987	-7.2638	288.686	-35.8129	429.5474	-17.4605	162.4577	32.1391	402.5584	-0.0592	0.0182	-0.0073	-0.0462	0.0165	0.9585
14.8219	33.5237	353.29	25.9724	-127.6968	-5.6034	252.1128	-38.6795	459.6464	-20.6213	173.5737	35.9292	428.4683	-0.0592	0.0182	-0.0073	-0.0462	0.0165	0.9585
